<?xml version="1.0" encoding="utf-8"?>
<!-- Generator: Adobe Illustrator 16.0.0, SVG Export Plug-In . SVG Version: 6.00 Build 0)  -->
<!DOCTYPE svg PUBLIC "-//W3C//DTD SVG 1.1//EN" "http://www.w3.org/Graphics/SVG/1.1/DTD/svg11.dtd">
<svg version="1.1" id="Layer_1" xmlns="http://www.w3.org/2000/svg" xmlns:xlink="http://www.w3.org/1999/xlink" x="0px" y="0px"
	 width="463.259px" height="461.294px" viewBox="0 0 463.259 461.294" enable-background="new 0 0 463.259 461.294"
	 xml:space="preserve">
<g display="none">
	<path fill-rule="evenodd" clip-rule="evenodd" fill="#28B34C" d="M180.189,453.805c-3.982-1.088-7.964-2.175-11.945-3.263
		c-1.5-1.082-3.223-1.542-5.016-1.813c-3.287-1.22-6.574-2.44-9.861-3.661c-1.06-0.425-2.12-0.849-3.179-1.273
		c-3.29-1.417-6.579-2.834-9.869-4.251c-1.611-0.839-3.223-1.677-4.835-2.516c-3.063-1.551-6.125-3.102-9.187-4.652
		c-0.669-0.39-1.338-0.78-2.007-1.17c-3.219-1.939-6.437-3.879-9.656-5.817c-1.456-0.952-2.912-1.904-4.368-2.856
		c-2.985-2.07-5.97-4.141-8.954-6.211c-0.427-0.346-0.854-0.691-1.281-1.037c-2.876-2.26-5.753-4.521-8.629-6.781
		c-0.848-0.72-1.696-1.44-2.543-2.161c-2.533-2.255-5.066-4.51-7.599-6.765c-1.353-1.294-2.705-2.588-4.058-3.883
		c-2.006-2.028-4.011-4.057-6.017-6.085c-1.295-1.383-2.59-2.766-3.885-4.148c-2.006-2.297-4.013-4.595-6.019-6.893
		c-0.932-1.156-1.863-2.313-2.795-3.47c-1.983-2.552-3.967-5.104-5.95-7.655c-0.424-1.186-1.063-2.21-2.162-2.892
		c-2.024-2.997-4.048-5.995-6.073-8.992c-0.331-1.206-0.912-2.249-1.945-3.001c-1.743-2.986-3.486-5.973-5.229-8.958
		c-0.946-1.706-1.892-3.411-2.838-5.117c-1.439-2.942-2.879-5.884-4.318-8.825c-0.544-1.031-1.087-2.062-1.631-3.092
		c-1.396-3.322-2.792-6.645-4.188-9.967c-0.153-1.523-0.736-2.872-1.658-4.083c-1.134-3.305-2.268-6.61-3.402-9.915
		c-0.242-1.796-0.696-3.519-1.747-5.035c-1.065-3.982-2.131-7.966-3.197-11.948c0.167-1.459-0.244-2.775-0.98-4.014
		c-0.723-3.998-1.445-7.996-2.168-11.994c-0.305-1.668-0.611-3.336-0.917-5.003c-0.543-4.36-1.086-8.722-1.629-13.081
		c-0.116-1.641-0.232-3.279-0.348-4.92c-0.16-4.651-0.32-9.303-0.479-13.954c0.416-1.706,0.468-3.407-0.093-5.097
		c0.848-5.293,0.664-10.635,0.726-15.965c0.575-1.627,0.878-3.288,0.637-5.019c0.803-5.988,1.605-11.976,2.408-17.964
		c1.177-1.848,0.966-3.975,1.208-6.01c1.79-6.64,3.581-13.279,5.371-19.919c0.803-2.693,1.606-5.386,2.41-8.079
		c3.335-8.004,6.67-16.008,10.005-24.012c2.059-3.117,3.733-6.427,5.015-9.936l-0.025,0.035c0.866-0.394,1.024-1.195,1.157-2.01
		c12.451-20.969,27.018-40.241,44.95-56.906c13.707-12.738,28.97-23.289,44.908-32.952c0.815-0.133,1.617-0.291,2.01-1.158
		l-0.036,0.025c3.511-1.273,6.816-2.956,9.934-5.01c8.004-3.336,16.009-6.673,24.014-10.01c2.693-0.803,5.386-1.606,8.08-2.41
		c6.64-1.79,13.279-3.58,19.919-5.37c2.036-0.242,4.163-0.032,6.011-1.208c5.987-0.802,11.974-1.605,17.961-2.408
		c1.729,0.218,3.404,0.014,5.021-0.639c5.329-0.057,10.669,0.121,15.962-0.721c1.689,0.563,3.39,0.52,5.097,0.088
		c4.651,0.161,9.304,0.321,13.955,0.482c1.64,0.116,3.278,0.231,4.918,0.347c4.36,0.543,8.722,1.086,13.083,1.629
		c1.668,0.306,3.335,0.611,5.002,0.917c3.999,0.723,7.997,1.446,11.995,2.168c1.235,0.748,2.556,1.146,4.014,0.979
		c3.983,1.067,7.967,2.133,11.95,3.2c1.515,1.051,3.238,1.5,5.033,1.744c3.306,1.136,6.611,2.271,9.917,3.407
		c1.213,0.913,2.559,1.501,4.08,1.652c3.323,1.396,6.646,2.793,9.969,4.189c1.03,0.543,2.06,1.087,3.089,1.63
		c2.942,1.439,5.885,2.879,8.827,4.318c1.706,0.946,3.411,1.893,5.117,2.838c2.986,1.744,5.974,3.486,8.96,5.23
		c0.751,1.032,1.794,1.613,2.999,1.943c2.998,2.024,5.996,4.049,8.994,6.072c0.679,1.101,1.704,1.738,2.889,2.162
		c2.555,1.982,5.108,3.966,7.662,5.948c1.155,0.932,2.31,1.865,3.464,2.798c2.298,2.007,4.596,4.013,6.894,6.019
		c1.382,1.295,2.765,2.59,4.147,3.885c2.028,2.006,4.058,4.01,6.086,6.016c1.294,1.353,2.588,2.705,3.882,4.059
		c2.252,2.531,4.505,5.063,6.757,7.594c0.724,0.85,1.446,1.699,2.17,2.55c2.256,2.873,4.511,5.747,6.767,8.62
		c0.351,0.43,0.701,0.859,1.051,1.289c2.07,2.984,4.141,5.97,6.211,8.954c0.952,1.456,1.904,2.913,2.856,4.369
		c1.933,3.214,3.865,6.429,5.798,9.642c0.397,0.674,0.794,1.348,1.191,2.021c1.55,3.061,3.099,6.121,4.648,9.182
		c0.84,1.613,1.679,3.227,2.519,4.84c1.416,3.288,2.832,6.577,4.248,9.866c0.425,1.061,0.85,2.121,1.273,3.183
		c1.222,3.285,2.442,6.572,3.663,9.858c0.274,1.792,0.724,3.52,1.811,5.018c1.089,3.981,2.177,7.962,3.265,11.943
		c0.339,1.343,0.677,2.686,1.016,4.028c0.902,4.012,1.804,8.022,2.706,12.033c0.189,1.367,0.38,2.732,0.569,4.1
		c0.565,4.291,1.131,8.582,1.696,12.873c-0.12,1.721-0.067,3.418,0.724,5.009c0.179,4.655,0.358,9.311,0.538,13.966
		c-0.233,1.707-0.354,3.408,0.239,5.075c-0.183,5.309-0.366,10.617-0.549,15.926c-0.077,1.677-0.154,3.354-0.231,5.032
		c-0.727,5.656-1.452,11.313-2.178,16.969c-1.021,1.896-0.813,4-1.019,6.033c-1.476,6.075-2.95,12.15-4.426,18.227
		c-0.786,2.923-1.572,5.847-2.358,8.771c-2.86,7.389-5.722,14.778-8.583,22.168c-1.44,3.281-2.882,6.563-4.323,9.846l-0.005,0.012
		c-0.764,0.438-1.028,1.135-1.021,1.971c-6.906,12.364-14.227,24.467-22.674,35.855c-12.779,16.197-27.266,30.688-43.465,43.467
		c-11.393,8.446-23.494,15.771-35.861,22.677c-0.836-0.005-1.533,0.259-1.97,1.022l-0.013,0.005
		c-3.277,1.439-6.555,2.878-9.832,4.317c-7.395,2.863-14.788,5.727-22.183,8.591c-2.917,0.784-5.835,1.568-8.753,2.353
		c-6.081,1.477-12.162,2.953-18.244,4.43c-2.034,0.207-4.141-0.007-6.036,1.02c-5.655,0.726-11.31,1.451-16.965,2.177
		c-1.678,0.077-3.354,0.155-5.032,0.233c-5.309,0.183-10.616,0.365-15.924,0.548c-1.668-0.593-3.369-0.475-5.076-0.24
		c-4.655-0.18-9.311-0.359-13.966-0.538c-1.592-0.781-3.288-0.846-5.01-0.724c-4.292-0.566-8.585-1.132-12.877-1.697
		c-1.365-0.189-2.729-0.379-4.094-0.568c-4.012-0.902-8.023-1.804-12.034-2.706C182.874,454.481,181.532,454.144,180.189,453.805z
		 M343.514,411.835l-0.092,0.093c0.788-0.182,1.583-0.353,1.957-1.205l-0.041,0.039c5.051-2.362,9.667-5.402,13.945-8.965
		c19.832-13.595,36.548-30.305,50.138-50.141c3.583-4.284,6.604-8.931,9.003-13.979c0.246-0.417,0.491-0.834,0.737-1.251
		c0.73-0.388,1.068-1.007,1.078-1.821c5.439-8.475,9.744-17.498,13.023-27.016c1.624-2.764,2.614-5.763,3.277-8.882
		c2.862-6.78,4.729-13.848,6.09-21.063c0.766-2.285,1.48-4.582,1.449-7.031c1.58-5.55,2.15-11.258,2.66-16.975
		c0.65-1.976,0.563-4.002,0.413-6.031c0.897-4.965,1.16-9.966,0.854-14.999c-0.019-1.679-0.036-3.356-0.055-5.035
		c0.444-5.023-0.128-9.991-0.83-14.95c-0.107-1.385-0.216-2.77-0.323-4.154c-0.577-4.288-1.153-8.576-1.729-12.865
		c-0.328-1.664-0.656-3.329-0.985-4.994c-0.474-4.114-1.195-8.172-2.788-12.027c0.077-1.443-0.149-2.805-1.067-3.981
		c-0.378-3.862-1.83-7.413-3.185-10.991c-0.525-1.363-1.051-2.727-1.576-4.089c-0.964-4.333-2.763-8.341-4.771-12.267
		c-0.309-1.019-0.361-2.158-1.349-2.855c-0.874-3.18-2.382-6.059-4.171-8.804c-0.136-1.25-0.794-2.218-1.661-3.073
		c-1.287-3.602-3.325-6.789-5.477-9.913c-0.901-1.397-1.803-2.794-2.703-4.192c-1.253-2.91-3.077-5.442-5.155-7.808
		c-0.664-1.574-1.606-2.946-2.924-4.049c-1.645-2.944-3.697-5.575-6.11-7.927c-0.591-1.378-1.562-2.437-2.771-3.295
		c-1.586-2.629-3.624-4.861-5.978-6.817c-0.673-1.298-1.666-2.285-2.927-3.013c-2.325-3.102-5.032-5.816-8.185-8.08
		c-0.73-1.252-1.705-2.248-3.029-2.877c-1.997-2.381-4.383-4.307-6.986-5.979c-0.634-1.04-1.523-1.753-2.693-2.107
		c-2.729-2.831-5.862-5.123-9.307-7.002c-0.71-1.067-1.729-1.696-2.928-2.069c-2.756-2.38-5.75-4.39-9.1-5.844
		c-0.398-0.919-1.281-1.066-2.098-1.318c-3.341-2.471-6.942-4.47-10.807-5.997c-0.677-0.35-1.354-0.698-2.03-1.047
		c-3.149-1.916-6.386-3.648-9.963-4.649c-1.465-1.202-3.194-1.778-5.023-2.115c-3.451-1.954-7.152-3.245-11.003-4.138
		c-1.367-0.496-2.734-0.994-4.102-1.49c-3.566-1.381-7.187-2.57-10.996-3.085c-1.34-0.337-2.679-0.674-4.019-1.011
		c-4.158-1.511-8.502-2.147-12.855-2.73c-1.357-0.171-2.716-0.342-4.073-0.514c-4.272-1.175-8.632-1.677-13.054-1.702
		c-1.654-0.086-3.308-0.172-4.962-0.258c-4.964-1.125-9.982-0.909-15.005-0.625c-1.68,0.004-3.361,0.009-5.041,0.014
		c-5.398-0.19-10.737,0.481-16.075,1.147c-1.644,0.22-3.289,0.44-4.933,0.661c-6.836,0.427-13.536,1.603-20.081,3.641
		c-1.684,0.152-3.431,0.043-4.875,1.184c-7.646,1.396-15.001,3.715-22.06,6.971c-0.838,0.021-1.675,0.045-2.208,0.854
		c0,0,0.002-0.043,0.003-0.042c-2.771,0.594-5.373,1.602-7.739,3.18c-11.056,4.366-21.448,9.954-31.093,16.913
		c-0.799,0.143-1.507,0.42-1.845,1.245c-0.383,0.264-0.765,0.526-1.147,0.79c-3.262,1.355-5.853,3.725-8.598,5.826
		c-18.17,13.902-34.167,29.871-46.51,49.281c-0.263,0.383-0.527,0.766-0.79,1.148c-0.827,0.339-1.102,1.051-1.248,1.85
		c-6.96,9.643-12.545,20.034-16.911,31.088c-1.575,2.368-2.594,4.965-3.18,7.738l0.042-0.001c-0.81,0.533-0.833,1.371-0.855,2.21
		c-3.257,7.056-5.571,14.41-6.969,22.055c-1.14,1.445-1.031,3.192-1.183,4.877c-2.04,6.545-3.214,13.246-3.641,20.084
		c-0.221,1.65-0.442,3.3-0.664,4.949c-0.663,5.332-1.341,10.663-1.145,16.057c-0.004,1.68-0.009,3.359-0.014,5.039
		c-0.281,5.021-0.506,10.041,0.625,15.003c0.086,1.653,0.172,3.307,0.259,4.96c0.024,4.422,0.527,8.782,1.701,13.055
		c0.172,1.363,0.343,2.728,0.515,4.092c0.583,4.351,1.222,8.689,2.73,12.844c0.336,1.338,0.673,2.676,1.01,4.013
		c0.513,3.811,1.703,7.432,3.085,10.999c0.497,1.37,0.995,2.741,1.492,4.112c0.891,3.846,2.186,7.541,4.134,10.988
		c0.336,1.832,0.917,3.561,2.118,5.027c1.004,3.578,2.731,6.82,4.656,9.969c0.35,0.678,0.699,1.355,1.048,2.033
		c1.524,3.864,3.52,7.467,5.996,10.803c0.245,0.818,0.395,1.696,1.31,2.096c1.465,3.341,3.452,6.347,5.842,9.094
		c0.373,1.203,1.006,2.223,2.075,2.935c1.879,3.446,4.176,6.577,7.004,9.308c0.35,1.171,1.065,2.055,2.102,2.688
		c1.673,2.604,3.6,4.99,5.981,6.987c0.631,1.325,1.629,2.3,2.884,3.031c2.258,3.157,4.977,5.86,8.079,8.185
		c0.72,1.262,1.706,2.25,3.002,2.92c1.951,2.359,4.198,4.382,6.818,5.979c0.847,0.718,1.693,1.437,2.54,2.155
		c2.605,2.616,5.467,4.902,8.685,6.728c1.097,1.315,2.469,2.252,4.036,2.918c2.372,2.074,4.907,3.901,7.817,5.159
		c1.399,0.902,2.797,1.804,4.196,2.706c3.122,2.156,6.313,4.188,9.913,5.477c0.855,0.867,1.823,1.525,3.073,1.661
		c2.745,1.788,5.623,3.296,8.801,4.17c0.7,0.989,1.844,1.04,2.864,1.355c3.927,2.008,7.936,3.806,12.27,4.77
		c1.36,0.524,2.72,1.049,4.081,1.572c3.578,1.358,7.132,2.801,10.992,3.188c1.177,0.916,2.538,1.14,3.979,1.063
		c3.854,1.594,7.912,2.313,12.025,2.789c1.667,0.329,3.333,0.658,5,0.987c4.292,0.577,8.585,1.154,12.877,1.729
		c1.381,0.107,2.762,0.215,4.144,0.322c4.959,0.688,9.925,1.275,14.947,0.831c1.679,0.019,3.356,0.037,5.035,0.056
		c5.033,0.31,10.031,0.022,14.996-0.857c2.027,0.148,4.051,0.24,6.023-0.41c5.719-0.512,11.43-1.08,16.98-2.662
		c2.449,0.035,4.742-0.682,7.027-1.446c7.218-1.365,14.293-3.226,21.075-6.099c3.12-0.655,6.115-1.649,8.878-3.272
		c9.521-3.273,18.537-7.591,27.019-13.021C342.66,412.355,343.087,412.095,343.514,411.835z"/>
	<path display="inline" fill-rule="evenodd" clip-rule="evenodd" fill="#28B34C" d="M356.754,151.094
		c0.534,1.022,1.068,2.045,1.602,3.068c1.104,4.199-0.183,7.715-2.743,11.095c-5.396,7.126-10.604,14.396-15.89,21.606
		c-5.07,6.025-9.691,12.384-14.081,18.915c-15.303,19.778-30.255,39.819-44.899,60.091c-5.082,6.017-9.694,12.383-14.084,18.915
		c-0.525,0.731-1.053,1.462-1.578,2.193c-0.479,0.61-0.959,1.221-1.438,1.831c-10.377,13.754-20.895,27.405-31.058,41.314
		c-3.781,5.176-8.095,7.605-14.407,5.768c-1.343-1.037-2.687-2.074-4.03-3.111c-1.97-1.971-3.94-3.939-5.911-5.91
		c-1.363-1.363-2.727-2.727-4.09-4.09c-1.97-1.97-3.94-3.939-5.91-5.91c-1.363-1.363-2.727-2.727-4.09-4.09
		c-1.97-1.97-3.94-3.939-5.91-5.91c-1.363-1.363-2.727-2.727-4.09-4.09c-1.97-1.97-3.94-3.939-5.91-5.91
		c-1.363-1.363-2.727-2.727-4.09-4.09c-1.969-1.971-3.938-3.941-5.907-5.912c-1.364-1.363-2.728-2.728-4.092-4.092
		c-1.969-1.969-3.938-3.938-5.908-5.908c-1.364-1.363-2.728-2.728-4.092-4.092c-1.969-1.969-3.938-3.938-5.908-5.908
		c-1.364-1.364-2.728-2.729-4.091-4.093c-1.969-1.97-3.938-3.938-5.907-5.907c-1.364-1.365-2.729-2.729-4.093-4.093
		c-1.969-1.97-3.938-3.938-5.907-5.907c-0.98-0.995-1.96-1.99-2.941-2.984c-3.546-8.257-1.079-14.742,6.194-16.549
		c3.177-0.79,5.807,0.59,8.544,1.701c1,0.984,1.999,1.97,2.998,2.955c1.996,1.995,3.991,3.99,5.987,5.986
		c1.053,1.623,2.391,2.961,4.013,4.014c1.996,1.995,3.991,3.99,5.986,5.986c1.053,1.623,2.391,2.961,4.014,4.014
		c1.996,1.995,3.991,3.99,5.986,5.986c1.053,1.623,2.391,2.961,4.014,4.014c1.996,1.995,3.991,3.99,5.986,5.986
		c1.053,1.623,2.391,2.961,4.014,4.014c1.996,1.995,3.991,3.99,5.986,5.986c1.053,1.623,2.391,2.961,4.014,4.014
		c1.996,1.995,3.991,3.99,5.986,5.986c1.053,1.623,2.392,2.961,4.015,4.015c1.996,1.995,3.992,3.991,5.987,5.986
		c1.052,1.622,2.389,2.96,4.011,4.011c2.049,2.166,4.161,4.274,6.127,6.512c1.662,1.891,2.715,1.588,4.166-0.375
		c15.315-20.731,30.711-41.402,46.085-62.09c5.287-6.416,10.291-13.041,14.818-20.019c0.583-0.766,1.166-1.532,1.748-2.298
		c0.423-0.568,0.846-1.137,1.268-1.705c14.129-18.01,27.718-36.422,41.123-54.973c3.435-4.464,7.019-8.823,10.251-13.43
		c2.193-3.125,4.858-5.348,8.478-6.463C350.824,147.228,354.072,148.469,356.754,151.094z"/>
</g>
<g>
	<path fill-rule="evenodd" clip-rule="evenodd" fill="#EF3B38" d="M228.755,462.793C103.186,461.617-1.185,358.804,0,228.898
		C1.156,102.164,104.376-1.305,233.42-0.4c128.541,0.901,232.478,106.538,229.791,236.664
		C460.605,362.442,356.627,464.522,228.755,462.793z M23.605,231.253c0.063,114.298,91.947,206.631,205.392,207.97
		c116.411,1.373,209.534-92.063,210.619-205.784c1.108-116.163-92.014-208.183-204.066-210.202
		C119.226,21.141,23.586,114.821,23.605,231.253z"/>
	<path fill-rule="evenodd" clip-rule="evenodd" fill="#EF3A37" d="M339.952,135.846c-0.031,2.452-1.589,5.364-4.156,7.927
		c-28.497,28.45-56.944,56.952-85.481,85.362c-1.777,1.77-1.615,2.611,0.061,4.281c28.583,28.476,57.093,57.025,85.633,85.543
		c3.497,3.495,4.587,7.622,3.124,12.275c-1.416,4.51-4.674,7.166-9.306,7.971c-3.792,0.659-7.151-0.432-9.946-3.089
		c-1.762-1.676-3.449-3.432-5.17-5.152c-27.087-27.086-54.188-54.157-81.219-81.3c-1.571-1.577-2.305-1.378-3.749,0.071
		c-28.542,28.628-57.132,57.208-85.729,85.783c-6.245,6.239-16.225,4.604-19.553-3.218c-1.764-4.146-1.252-8.141,1.388-11.8
		c0.684-0.947,1.539-1.779,2.37-2.61c28.246-28.258,56.485-56.523,84.789-84.723c1.551-1.545,1.728-2.273,0.067-3.926
		c-28.701-28.58-57.329-57.233-85.961-85.881c-5.092-5.094-5.09-12.757-0.051-17.363c4.702-4.298,11.744-4.172,16.355,0.403
		c8.303,8.238,16.551,16.532,24.821,24.802c20.426,20.426,40.871,40.833,61.24,61.315c1.595,1.604,2.371,1.837,4.117,0.083
		c28.352-28.485,56.798-56.876,85.196-85.315c3.252-3.257,6.919-5.042,11.619-4.147
		C335.935,124.188,339.925,128.974,339.952,135.846z"/>
</g>
</svg>
