<svg width="158" height="24" viewBox="0 0 158 24" fill="none" xmlns="http://www.w3.org/2000/svg">
<path d="M10.2074 6.34375C10.1278 5.59943 9.79261 5.01989 9.2017 4.60511C8.61648 4.19034 7.85511 3.98295 6.91761 3.98295C6.25852 3.98295 5.69318 4.08239 5.22159 4.28125C4.75 4.48011 4.3892 4.75 4.1392 5.09091C3.8892 5.43182 3.76136 5.82102 3.75568 6.25852C3.75568 6.62216 3.83807 6.9375 4.00284 7.20455C4.1733 7.47159 4.40341 7.69886 4.69318 7.88636C4.98295 8.06818 5.30398 8.22159 5.65625 8.34659C6.00852 8.47159 6.36364 8.5767 6.72159 8.66193L8.35795 9.07102C9.01705 9.22443 9.65057 9.43182 10.2585 9.69318C10.8722 9.95455 11.4205 10.2841 11.9034 10.6818C12.392 11.0795 12.7784 11.5597 13.0625 12.1222C13.3466 12.6847 13.4886 13.3437 13.4886 14.0994C13.4886 15.1222 13.2273 16.0227 12.7045 16.8011C12.1818 17.5739 11.4261 18.179 10.4375 18.6165C9.45455 19.0483 8.2642 19.2642 6.86648 19.2642C5.50852 19.2642 4.32955 19.054 3.32955 18.6335C2.33523 18.2131 1.55682 17.5994 0.994318 16.7926C0.4375 15.9858 0.136364 15.0028 0.0909091 13.8438H3.2017C3.24716 14.4517 3.43466 14.9574 3.7642 15.3608C4.09375 15.7642 4.52273 16.0653 5.05114 16.2642C5.58523 16.4631 6.18182 16.5625 6.84091 16.5625C7.52841 16.5625 8.13068 16.4602 8.64773 16.2557C9.17045 16.0455 9.57955 15.7557 9.875 15.3864C10.1705 15.0114 10.321 14.5739 10.3267 14.0739C10.321 13.6193 10.1875 13.2443 9.92614 12.9489C9.66477 12.6477 9.2983 12.3977 8.8267 12.1989C8.3608 11.9943 7.81534 11.8125 7.19034 11.6534L5.20455 11.142C3.76705 10.7727 2.63068 10.2131 1.79545 9.46307C0.965909 8.70739 0.551136 7.70455 0.551136 6.45454C0.551136 5.42614 0.829546 4.52557 1.38636 3.75284C1.94886 2.98011 2.71307 2.38068 3.67898 1.95454C4.64489 1.52273 5.73864 1.30682 6.96023 1.30682C8.19886 1.30682 9.28409 1.52273 10.2159 1.95454C11.1534 2.38068 11.8892 2.97443 12.4233 3.73579C12.9574 4.49148 13.233 5.3608 13.25 6.34375H10.2074ZM19.2564 11.3295V19H16.1712V1.54545H19.1882V8.13352H19.3416C19.6484 7.39489 20.1229 6.8125 20.7649 6.38636C21.4126 5.95455 22.2365 5.73864 23.2365 5.73864C24.1456 5.73864 24.9382 5.92898 25.6143 6.30966C26.2905 6.69034 26.8132 7.24716 27.1825 7.98011C27.5575 8.71307 27.745 9.60795 27.745 10.6648V19H24.6598V11.142C24.6598 10.2614 24.4325 9.5767 23.978 9.08807C23.5291 8.59375 22.8984 8.34659 22.0859 8.34659C21.5405 8.34659 21.0518 8.46591 20.62 8.70455C20.1939 8.9375 19.8587 9.27557 19.6143 9.71875C19.3757 10.1619 19.2564 10.6989 19.2564 11.3295ZM30.8899 19V5.90909H33.9751V19H30.8899ZM32.4411 4.05114C31.9524 4.05114 31.532 3.8892 31.1797 3.56534C30.8274 3.23579 30.6513 2.84091 30.6513 2.38068C30.6513 1.91477 30.8274 1.51989 31.1797 1.19602C31.532 0.866477 31.9524 0.701704 32.4411 0.701704C32.9354 0.701704 33.3558 0.866477 33.7024 1.19602C34.0547 1.51989 34.2308 1.91477 34.2308 2.38068C34.2308 2.84091 34.0547 3.23579 33.7024 3.56534C33.3558 3.8892 32.9354 4.05114 32.4411 4.05114ZM37.1477 23.9091V5.90909H40.1818V8.07386H40.3608C40.5199 7.75568 40.7443 7.41761 41.0341 7.05966C41.3239 6.69602 41.7159 6.38636 42.2102 6.13068C42.7045 5.86932 43.3352 5.73864 44.1023 5.73864C45.1136 5.73864 46.0256 5.99716 46.8381 6.5142C47.6563 7.02557 48.304 7.78409 48.7812 8.78977C49.2642 9.78977 49.5057 11.017 49.5057 12.4716C49.5057 13.9091 49.2699 15.1307 48.7983 16.1364C48.3267 17.142 47.6847 17.9091 46.8722 18.4375C46.0597 18.9659 45.1392 19.2301 44.1108 19.2301C43.3608 19.2301 42.7386 19.1051 42.2443 18.8551C41.75 18.6051 41.3523 18.304 41.0511 17.9517C40.7557 17.5937 40.5256 17.2557 40.3608 16.9375H40.233V23.9091H37.1477ZM40.1733 12.4545C40.1733 13.3011 40.2926 14.0426 40.5312 14.679C40.7756 15.3153 41.125 15.8125 41.5795 16.1705C42.0398 16.5227 42.5966 16.6989 43.25 16.6989C43.9318 16.6989 44.5028 16.517 44.9631 16.1534C45.4233 15.7841 45.7699 15.2812 46.0028 14.6449C46.2415 14.0028 46.3608 13.2727 46.3608 12.4545C46.3608 11.642 46.2443 10.9205 46.0114 10.2898C45.7784 9.65909 45.4318 9.16477 44.9716 8.80682C44.5114 8.44886 43.9375 8.26989 43.25 8.26989C42.5909 8.26989 42.0312 8.44318 41.571 8.78977C41.1108 9.13636 40.7614 9.62216 40.5227 10.2472C40.2898 10.8722 40.1733 11.608 40.1733 12.4545ZM57.7855 7V5.26136C57.7855 4.76136 57.8793 4.24148 58.0668 3.7017C58.2599 3.15625 58.5213 2.64204 58.8509 2.15909C59.1861 1.67045 59.5611 1.25852 59.9759 0.923295L61.4077 1.85227C61.0724 2.35795 60.7912 2.88636 60.5639 3.4375C60.3423 3.98295 60.2344 4.58523 60.2401 5.24432V7H57.7855ZM66.647 11.3295V19H63.5618V5.90909H66.5107V8.13352H66.6641C66.9652 7.40057 67.4453 6.81818 68.1044 6.38636C68.7692 5.95455 69.5902 5.73864 70.5675 5.73864C71.4709 5.73864 72.2578 5.93182 72.9283 6.31818C73.6044 6.70455 74.1271 7.2642 74.4964 7.99716C74.8714 8.73011 75.0561 9.61932 75.0504 10.6648V19H71.9652V11.142C71.9652 10.267 71.7379 9.58239 71.2834 9.08807C70.8345 8.59375 70.2124 8.34659 69.4169 8.34659C68.8771 8.34659 68.397 8.46591 67.9766 8.70455C67.5618 8.9375 67.2351 9.27557 66.9964 9.71875C66.7635 10.1619 66.647 10.6989 66.647 11.3295ZM84.2763 19V1.54545H87.4382V16.3494H95.1257V19H84.2763ZM101.501 19.2642C100.671 19.2642 99.924 19.1165 99.2592 18.821C98.6001 18.5199 98.0774 18.0767 97.6911 17.4915C97.3104 16.9062 97.12 16.1847 97.12 15.3267C97.12 14.5881 97.2564 13.9773 97.5291 13.4943C97.8018 13.0114 98.174 12.625 98.6456 12.3352C99.1172 12.0455 99.6484 11.8267 100.239 11.679C100.836 11.5256 101.452 11.4148 102.089 11.3466C102.856 11.267 103.478 11.196 103.955 11.1335C104.433 11.0653 104.779 10.9631 104.995 10.8267C105.217 10.6847 105.327 10.4659 105.327 10.1705V10.1193C105.327 9.47727 105.137 8.98011 104.756 8.62784C104.376 8.27557 103.827 8.09943 103.112 8.09943C102.356 8.09943 101.756 8.2642 101.313 8.59375C100.876 8.9233 100.58 9.3125 100.427 9.76136L97.5462 9.35227C97.7734 8.55682 98.1484 7.89205 98.6712 7.35795C99.1939 6.81818 99.8331 6.41477 100.589 6.14773C101.344 5.875 102.18 5.73864 103.094 5.73864C103.725 5.73864 104.353 5.8125 104.978 5.96023C105.603 6.10795 106.174 6.35227 106.691 6.69318C107.208 7.02841 107.623 7.4858 107.935 8.06534C108.254 8.64489 108.413 9.36932 108.413 10.2386V19H105.447V17.2017H105.344C105.157 17.5653 104.893 17.9062 104.552 18.2244C104.217 18.5369 103.793 18.7898 103.282 18.983C102.776 19.1705 102.183 19.2642 101.501 19.2642ZM102.302 16.9972C102.921 16.9972 103.458 16.875 103.913 16.6307C104.367 16.3807 104.717 16.0511 104.961 15.642C105.211 15.233 105.336 14.7869 105.336 14.304V12.7614C105.239 12.8409 105.075 12.9148 104.842 12.983C104.614 13.0511 104.359 13.1108 104.075 13.1619C103.79 13.2131 103.509 13.2585 103.231 13.2983C102.952 13.3381 102.711 13.3722 102.506 13.4006C102.046 13.4631 101.634 13.5653 101.271 13.7074C100.907 13.8494 100.62 14.0483 100.41 14.304C100.2 14.554 100.094 14.8778 100.094 15.2756C100.094 15.8438 100.302 16.2727 100.717 16.5625C101.131 16.8523 101.66 16.9972 102.302 16.9972ZM111.651 19V1.54545H114.737V8.07386H114.864C115.023 7.75568 115.248 7.41761 115.538 7.05966C115.827 6.69602 116.219 6.38636 116.714 6.13068C117.208 5.86932 117.839 5.73864 118.606 5.73864C119.617 5.73864 120.529 5.99716 121.342 6.5142C122.16 7.02557 122.808 7.78409 123.285 8.78977C123.768 9.78977 124.009 11.017 124.009 12.4716C124.009 13.9091 123.773 15.1307 123.302 16.1364C122.83 17.142 122.188 17.9091 121.376 18.4375C120.563 18.9659 119.643 19.2301 118.614 19.2301C117.864 19.2301 117.242 19.1051 116.748 18.8551C116.254 18.6051 115.856 18.304 115.555 17.9517C115.259 17.5937 115.029 17.2557 114.864 16.9375H114.685V19H111.651ZM114.677 12.4545C114.677 13.3011 114.796 14.0426 115.035 14.679C115.279 15.3153 115.629 15.8125 116.083 16.1705C116.543 16.5227 117.1 16.6989 117.754 16.6989C118.435 16.6989 119.006 16.517 119.467 16.1534C119.927 15.7841 120.273 15.2812 120.506 14.6449C120.745 14.0028 120.864 13.2727 120.864 12.4545C120.864 11.642 120.748 10.9205 120.515 10.2898C120.282 9.65909 119.935 9.16477 119.475 8.80682C119.015 8.44886 118.441 8.26989 117.754 8.26989C117.094 8.26989 116.535 8.44318 116.075 8.78977C115.614 9.13636 115.265 9.62216 115.026 10.2472C114.793 10.8722 114.677 11.608 114.677 12.4545ZM132.428 19.2557C131.115 19.2557 129.982 18.983 129.027 18.4375C128.078 17.8864 127.348 17.108 126.837 16.1023C126.325 15.0909 126.07 13.9006 126.07 12.5312C126.07 11.1847 126.325 10.0028 126.837 8.9858C127.354 7.96307 128.075 7.16761 129.001 6.59943C129.928 6.02557 131.016 5.73864 132.266 5.73864C133.072 5.73864 133.834 5.86932 134.55 6.13068C135.271 6.38636 135.908 6.78409 136.459 7.32386C137.016 7.86364 137.453 8.55114 137.771 9.38636C138.089 10.2159 138.249 11.2045 138.249 12.3523V13.2983H127.518V11.2188H135.291C135.286 10.6278 135.158 10.1023 134.908 9.64205C134.658 9.17614 134.308 8.80966 133.859 8.54261C133.416 8.27557 132.899 8.14205 132.308 8.14205C131.678 8.14205 131.124 8.29545 130.646 8.60227C130.169 8.90341 129.797 9.30114 129.53 9.79545C129.268 10.2841 129.135 10.821 129.129 11.4062V13.2216C129.129 13.983 129.268 14.6364 129.547 15.1818C129.825 15.7216 130.214 16.1364 130.714 16.4261C131.214 16.7102 131.8 16.8523 132.47 16.8523C132.919 16.8523 133.325 16.7898 133.689 16.6648C134.053 16.5341 134.368 16.3438 134.635 16.0938C134.902 15.8438 135.104 15.5341 135.24 15.1648L138.121 15.4886C137.939 16.25 137.592 16.9148 137.081 17.483C136.575 18.0455 135.928 18.483 135.138 18.7955C134.348 19.1023 133.445 19.2557 132.428 19.2557ZM143.944 1.54545V19H140.859V1.54545H143.944ZM157.463 9.36932L154.651 9.67614C154.571 9.39205 154.432 9.125 154.233 8.875C154.04 8.625 153.778 8.4233 153.449 8.26989C153.119 8.11648 152.716 8.03977 152.239 8.03977C151.597 8.03977 151.057 8.17898 150.619 8.45739C150.188 8.7358 149.974 9.09659 149.98 9.53977C149.974 9.92045 150.114 10.2301 150.398 10.4688C150.688 10.7074 151.165 10.9034 151.83 11.0568L154.062 11.5341C155.301 11.8011 156.222 12.2244 156.824 12.804C157.432 13.3835 157.739 14.142 157.744 15.0795C157.739 15.9034 157.497 16.6307 157.02 17.2614C156.548 17.8864 155.892 18.375 155.051 18.7273C154.21 19.0795 153.244 19.2557 152.153 19.2557C150.551 19.2557 149.261 18.9205 148.284 18.25C147.307 17.5739 146.724 16.6335 146.537 15.429L149.545 15.1392C149.682 15.7301 149.972 16.1761 150.415 16.4773C150.858 16.7784 151.435 16.929 152.145 16.929C152.878 16.929 153.466 16.7784 153.909 16.4773C154.358 16.1761 154.582 15.804 154.582 15.3608C154.582 14.9858 154.438 14.6761 154.148 14.4318C153.864 14.1875 153.42 14 152.818 13.8693L150.585 13.4006C149.33 13.1392 148.401 12.6989 147.798 12.0795C147.196 11.4545 146.898 10.6648 146.903 9.71023C146.898 8.90341 147.116 8.20455 147.56 7.61364C148.009 7.01705 148.631 6.55682 149.426 6.23295C150.227 5.90341 151.151 5.73864 152.196 5.73864C153.73 5.73864 154.938 6.06534 155.818 6.71875C156.705 7.37216 157.253 8.25568 157.463 9.36932Z" fill="#424651"/>
</svg>
